<mxfile host="app.diagrams.net" agent="Mozilla/5.0 (Windows NT 10.0; Win64; x64; rv:138.0) Gecko/20100101 Firefox/138.0" version="27.1.1">
  <diagram name="Page-1" id="_A3F5NxDE_vhNUyv0y9X">
    <mxGraphModel dx="1169" dy="888" grid="1" gridSize="10" guides="1" tooltips="1" connect="1" arrows="1" fold="1" page="1" pageScale="1" pageWidth="850" pageHeight="1100" math="0" shadow="0">
      <root>
        <mxCell id="0" />
        <mxCell id="1" parent="0" />
        <mxCell id="bCnpHm9SY_MTsBrbrGMn-4" value="" style="edgeStyle=orthogonalEdgeStyle;rounded=0;orthogonalLoop=1;jettySize=auto;html=1;" edge="1" parent="1" source="bCnpHm9SY_MTsBrbrGMn-1" target="bCnpHm9SY_MTsBrbrGMn-3">
          <mxGeometry relative="1" as="geometry" />
        </mxCell>
        <mxCell id="bCnpHm9SY_MTsBrbrGMn-1" value="&lt;font style=&quot;font-size: 30px;&quot;&gt;JSON/API&lt;/font&gt;" style="rounded=1;whiteSpace=wrap;html=1;" vertex="1" parent="1">
          <mxGeometry x="360" y="420" width="150" height="70" as="geometry" />
        </mxCell>
        <mxCell id="bCnpHm9SY_MTsBrbrGMn-6" value="" style="edgeStyle=orthogonalEdgeStyle;rounded=0;orthogonalLoop=1;jettySize=auto;html=1;" edge="1" parent="1" source="bCnpHm9SY_MTsBrbrGMn-3" target="bCnpHm9SY_MTsBrbrGMn-5">
          <mxGeometry relative="1" as="geometry" />
        </mxCell>
        <mxCell id="bCnpHm9SY_MTsBrbrGMn-3" value="Data Interface" style="whiteSpace=wrap;html=1;rounded=1;" vertex="1" parent="1">
          <mxGeometry x="145" y="425" width="120" height="60" as="geometry" />
        </mxCell>
        <mxCell id="bCnpHm9SY_MTsBrbrGMn-8" value="" style="edgeStyle=orthogonalEdgeStyle;rounded=0;orthogonalLoop=1;jettySize=auto;html=1;" edge="1" parent="1" source="bCnpHm9SY_MTsBrbrGMn-5" target="bCnpHm9SY_MTsBrbrGMn-7">
          <mxGeometry relative="1" as="geometry" />
        </mxCell>
        <mxCell id="bCnpHm9SY_MTsBrbrGMn-10" value="" style="edgeStyle=orthogonalEdgeStyle;rounded=0;orthogonalLoop=1;jettySize=auto;html=1;" edge="1" parent="1" source="bCnpHm9SY_MTsBrbrGMn-5" target="bCnpHm9SY_MTsBrbrGMn-9">
          <mxGeometry relative="1" as="geometry" />
        </mxCell>
        <mxCell id="bCnpHm9SY_MTsBrbrGMn-12" value="" style="edgeStyle=orthogonalEdgeStyle;rounded=0;orthogonalLoop=1;jettySize=auto;html=1;" edge="1" parent="1" source="bCnpHm9SY_MTsBrbrGMn-5" target="bCnpHm9SY_MTsBrbrGMn-11">
          <mxGeometry relative="1" as="geometry" />
        </mxCell>
        <mxCell id="bCnpHm9SY_MTsBrbrGMn-5" value="How Is JSON presented" style="whiteSpace=wrap;html=1;rounded=1;" vertex="1" parent="1">
          <mxGeometry x="145" y="565" width="120" height="60" as="geometry" />
        </mxCell>
        <mxCell id="bCnpHm9SY_MTsBrbrGMn-7" value="Keys" style="whiteSpace=wrap;html=1;rounded=1;" vertex="1" parent="1">
          <mxGeometry x="145" y="660" width="120" height="60" as="geometry" />
        </mxCell>
        <mxCell id="bCnpHm9SY_MTsBrbrGMn-9" value="Values" style="whiteSpace=wrap;html=1;rounded=1;" vertex="1" parent="1">
          <mxGeometry x="145" y="760" width="120" height="60" as="geometry" />
        </mxCell>
        <mxCell id="bCnpHm9SY_MTsBrbrGMn-11" value="Arrays" style="whiteSpace=wrap;html=1;rounded=1;" vertex="1" parent="1">
          <mxGeometry x="145" y="860" width="120" height="60" as="geometry" />
        </mxCell>
      </root>
    </mxGraphModel>
  </diagram>
</mxfile>
